<svg xmlns="http://www.w3.org/2000/svg" xmlns:xlink="http://www.w3.org/1999/xlink" width="238" height="238" viewBox="0 0 238 238">
    <defs>
        <ellipse id="a" cx="119.063" cy="118.995" rx="118.469" ry="118.402"/>
    </defs>
    <g fill="none" fill-rule="evenodd">
        <mask id="b" fill="#fff">
            <use xlink:href="#a"/>
        </mask>
        <use fill="#FF9200" opacity=".6" xlink:href="#a"/>
        <g mask="url(#b)">
            <path fill="#41403E" d="M194.885 96.667c5.085 1.904 13.348-4.067 13.348-4.067-31.137-11.685-13.348-61.947-36.825-90.14-23.478-28.191-52.011-8.623-52.011-8.623S90.862-25.731 67.385 2.46C43.907 30.653 61.698 80.915 30.561 92.6c0 0 8.262 5.97 13.346 4.066 0 0 23.825 67.7-23.041 93.517 0 0 57.732 59.461 98.53 45.496 40.8 13.965 98.532-45.496 98.532-45.496-46.865-25.817-23.043-93.517-23.043-93.517"/>
            <path fill="#FF9200" d="M219.849 186.843c-1.866-8.955-31.74-25.738-41.45-27.976-9.71-2.239-15.31 12.515-15.31 12.515l-43.692 46.42-43.692-46.42s-5.6-14.754-15.31-12.515c-9.712 2.238-39.584 19.021-41.45 27.976-1.867 8.952-13.442 67.886-1.867 90.64h204.638c11.575-22.754 0-81.688-1.867-90.64"/>
            <path fill="#EDD0A8" d="M140.718 124.96H98.075c0 42.932-26.105 45.844-26.105 45.844 0 40.658 47.426 47 47.426 47s47.427-6.342 47.427-47c0 0-26.105-2.912-26.105-45.845"/>
            <path fill="#FCE5C5" d="M119.396 140.63c-18.046 0-31.82-15.18-37.994-26.565-6.174-11.383-10.444-76.846 2.854-94.872 13.02-17.653 35.14-15.655 35.14-15.655s22.12-1.998 35.144 15.655c13.297 18.026 9.024 83.489 2.85 94.872-6.173 11.384-19.947 26.565-37.994 26.565"/>
            <path fill="#41403E" d="M75.935 81.323c54.868-7.846 67.617-46.533 67.617-46.533s1.594 21.155 19.7 35.348c0 0 12.964-36.858-7.6-57.099-20.569-20.244-54.138-19.639-74.4 2.115-20.266 21.75-5.317 66.17-5.317 66.17"/>
            <path fill="#006F5C" d="M54.215 222.357s-12.331 41.959 22.698 55.127H48.89s-3.924-33.856 5.324-55.127M184.579 222.357s12.33 41.959-22.698 55.127h28.021s3.924-33.856-5.323-55.127"/>
        </g>
    </g>
</svg>
