<svg xmlns="http://www.w3.org/2000/svg" xmlns:xlink="http://www.w3.org/1999/xlink" width="26" height="26" viewBox="0 0 26 26">
    <defs>
        <path id="a" d="M0 .07h25.335v25.354H0"/>
    </defs>
    <g fill="none" fill-rule="evenodd">
        <mask id="b" fill="#fff">
            <use xlink:href="#a"/>
        </mask>
        <path fill="#B1BFCD" d="M10.945 22.988c4.683 0 8.494-3.795 8.533-8.425.04-4.674-3.715-8.627-8.521-8.636-4.698-.008-8.524 3.814-8.525 8.529a8.504 8.504 0 0 0 8.513 8.532M17.76 5.875L21.13 2.5c-.293 0-.58.004-.869-.001-.253-.005-.509.002-.758-.033-.63-.089-1.05-.658-.998-1.322a1.19 1.19 0 0 1 1.167-1.07 672.95 672.95 0 0 1 4.492 0 1.157 1.157 0 0 1 1.147 1.058c.03.378.022.76.022 1.14-.002 1.167.01 2.333-.02 3.499-.018.667-.575 1.152-1.224 1.135-.661-.017-1.17-.538-1.18-1.215-.006-.452-.003-.904-.006-1.356 0-.015-.009-.03.002.004l-3.34 3.345c1.948 2.537 2.713 5.464 2.16 8.697-.467 2.739-1.84 4.972-4.01 6.698-4.29 3.412-10.565 3.06-14.428-.792-3.986-3.975-4.399-10.214-.958-14.579 1.217-1.544 2.734-2.7 4.561-3.43a10.803 10.803 0 0 1 5.665-.66 10.76 10.76 0 0 1 5.204 2.257" mask="url(#b)"/>
    </g>
</svg>
