<svg xmlns="http://www.w3.org/2000/svg" width="22" height="30" viewBox="0 0 22 30">
    <path fill="#B1BFCD" fill-rule="evenodd" d="M18.746 10.551c-.001-4.504-3.671-8.206-8.137-8.207-4.58-.002-8.258 3.65-8.258 8.2 0 4.537 3.668 8.219 8.194 8.224 4.518.005 8.202-3.686 8.201-8.217m-7.03 16.234c0 .574.004 1.122-.002 1.67-.005.582-.354 1.042-.875 1.17-.76.186-1.441-.35-1.456-1.153-.008-.473-.001-.947-.001-1.42v-.267h-1.51c-.705 0-1.219-.47-1.237-1.131-.018-.672.484-1.183 1.197-1.202.434-.012.869-.003 1.303-.003h.247v-.455c0-.893-.008-1.786.005-2.68.003-.224-.062-.283-.285-.318-3.485-.549-6.128-2.355-7.82-5.45C-.896 11.558-.248 6.698 2.84 3.376 4.572 1.516 6.712.417 9.23.087c5.409-.705 10.491 2.926 11.622 8.287a10.533 10.533 0 0 1-4.887 11.22 10.462 10.462 0 0 1-4.067 1.417c-.112.015-.184.036-.184.173.003 1.076.002 2.152.002 3.265h.253c.465.002.93-.012 1.395.01.606.031 1.051.487 1.097 1.087a1.154 1.154 0 0 1-.926 1.215c-.14.03-.287.022-.432.023-.455.003-.91.001-1.388.001"/>
</svg>
